<svg width="31" height="31" viewBox="0 0 31 31" fill="none" xmlns="http://www.w3.org/2000/svg">
<path d="M16.649 13.1058H4.1971C3.51224 13.1058 2.9519 13.6661 2.9519 14.351C2.9519 15.0358 3.51224 15.5962 4.1971 15.5962H16.649C17.3339 15.5962 17.8942 15.0358 17.8942 14.351C17.8942 13.6661 17.3339 13.1058 16.649 13.1058ZM16.649 8.125H4.1971C3.51224 8.125 2.9519 8.68534 2.9519 9.37019C2.9519 10.055 3.51224 10.6154 4.1971 10.6154H16.649C17.3339 10.6154 17.8942 10.055 17.8942 9.37019C17.8942 8.68534 17.3339 8.125 16.649 8.125ZM22.875 18.0865V14.351C22.875 13.6661 22.3146 13.1058 21.6298 13.1058C20.9449 13.1058 20.3846 13.6661 20.3846 14.351V18.0865H16.649C15.9642 18.0865 15.4038 18.6469 15.4038 19.3317C15.4038 20.0166 15.9642 20.5769 16.649 20.5769H20.3846V24.3125C20.3846 24.9974 20.9449 25.5577 21.6298 25.5577C22.3146 25.5577 22.875 24.9974 22.875 24.3125V20.5769H26.6106C27.2954 20.5769 27.8558 20.0166 27.8558 19.3317C27.8558 18.6469 27.2954 18.0865 26.6106 18.0865H22.875ZM4.1971 20.5769H11.6683C12.3531 20.5769 12.9134 20.0166 12.9134 19.3317C12.9134 18.6469 12.3531 18.0865 11.6683 18.0865H4.1971C3.51224 18.0865 2.9519 18.6469 2.9519 19.3317C2.9519 20.0166 3.51224 20.5769 4.1971 20.5769Z" fill="#C7C5D0"/>
</svg>
