<svg width="22" height="22" viewBox="0 0 22 22" fill="none" xmlns="http://www.w3.org/2000/svg">
<g filter="url(#filter0_di_4_131)">
<path d="M3.99999 2.75484C3.99999 3.60287 4.59239 4.31783 5.17663 4.9325C5.27565 5.03667 5.36746 5.14826 5.4512 5.2666C5.80984 5.77346 6.00244 6.37909 6.00244 7C6.00244 7.62091 5.80984 8.22654 5.4512 8.7334C5.36746 8.85174 5.27564 8.96333 5.17663 9.0675C4.59239 9.68217 3.99999 10.3971 3.99999 11.2452L3.99999 19C3.99999 19.5523 3.55227 20 2.99999 20C2.4477 20 1.99999 19.5523 1.99999 19L1.99999 11.2452C1.99999 10.3971 1.40759 9.68217 0.823347 9.0675C0.724327 8.96333 0.632507 8.85174 0.548776 8.7334C0.190132 8.22654 -0.00246653 7.62091 -0.00246651 7C-0.00246648 6.37909 0.190132 5.77346 0.548776 5.2666C0.632507 5.14826 0.724327 5.03667 0.823347 4.9325C1.40759 4.31783 1.99999 3.60287 1.99999 2.75484L1.99999 1C1.99999 0.447715 2.4477 -7.67342e-07 2.99999 -7.43201e-07C3.55227 -7.1906e-07 3.99999 0.447715 3.99999 0.999999L3.99999 2.75484ZM11 8.75484C11 9.60287 11.5924 10.3178 12.1766 10.9325C12.2756 11.0367 12.3675 11.1483 12.4512 11.2666C12.8098 11.7735 13.0024 12.3791 13.0024 13C13.0024 13.6209 12.8098 14.2265 12.4512 14.7334C12.3675 14.8517 12.2756 14.9633 12.1766 15.0675C11.5924 15.6822 11 16.3971 11 17.2452L11 19C11 19.5523 10.5523 20 9.99999 20C9.4477 20 8.99999 19.5523 8.99999 19L8.99999 17.2452C8.99999 16.3971 8.40759 15.6822 7.82335 15.0675C7.72433 14.9633 7.63251 14.8517 7.54878 14.7334C7.19013 14.2265 6.99754 13.6209 6.99754 13C6.99754 12.3791 7.19013 11.7735 7.54878 11.2666C7.63251 11.1483 7.72433 11.0367 7.82335 10.9325C8.40759 10.3178 8.99999 9.60287 8.99999 8.75484L8.99999 0.999998C8.99999 0.447714 9.4477 -4.61362e-07 9.99999 -4.37221e-07C10.5523 -4.1308e-07 11 0.447715 11 1L11 8.75484ZM18 2.75484C18 3.60287 18.5924 4.31783 19.1766 4.9325C19.2756 5.03667 19.3675 5.14826 19.4512 5.2666C19.8098 5.77346 20.0024 6.37909 20.0024 7C20.0024 7.62091 19.8098 8.22654 19.4512 8.7334C19.3675 8.85174 19.2756 8.96333 19.1766 9.0675C18.5924 9.68217 18 10.3971 18 11.2452L18 19C18 19.5523 17.5523 20 17 20C16.4477 20 16 19.5523 16 19L16 11.2452C16 10.3971 15.4076 9.68217 14.8233 9.0675C14.7243 8.96333 14.6325 8.85174 14.5488 8.7334C14.1901 8.22654 13.9975 7.62091 13.9975 7C13.9975 6.37909 14.1901 5.77346 14.5488 5.2666C14.6325 5.14826 14.7243 5.03667 14.8233 4.9325C15.4076 4.31783 16 3.60287 16 2.75484L16 1C16 0.447716 16.4477 -1.55382e-07 17 -1.31241e-07C17.5523 -1.071e-07 18 0.447715 18 1L18 2.75484Z" fill="#C7C5D0"/>
</g>
<defs>
<filter id="filter0_di_4_131" x="-0.00244141" y="0" width="22.0049" height="22" filterUnits="userSpaceOnUse" color-interpolation-filters="sRGB">
<feFlood flood-opacity="0" result="BackgroundImageFix"/>
<feColorMatrix in="SourceAlpha" type="matrix" values="0 0 0 0 0 0 0 0 0 0 0 0 0 0 0 0 0 0 127 0" result="hardAlpha"/>
<feOffset dx="1" dy="1"/>
<feGaussianBlur stdDeviation="0.5"/>
<feColorMatrix type="matrix" values="0 0 0 0 1 0 0 0 0 1 0 0 0 0 1 0 0 0 1 0"/>
<feBlend mode="normal" in2="BackgroundImageFix" result="effect1_dropShadow_4_131"/>
<feBlend mode="normal" in="SourceGraphic" in2="effect1_dropShadow_4_131" result="shape"/>
<feColorMatrix in="SourceAlpha" type="matrix" values="0 0 0 0 0 0 0 0 0 0 0 0 0 0 0 0 0 0 127 0" result="hardAlpha"/>
<feOffset dx="1" dy="1"/>
<feGaussianBlur stdDeviation="0.5"/>
<feComposite in2="hardAlpha" operator="arithmetic" k2="-1" k3="1"/>
<feColorMatrix type="matrix" values="0 0 0 0 0 0 0 0 0 0 0 0 0 0 0 0 0 0 0.1 0"/>
<feBlend mode="normal" in2="shape" result="effect2_innerShadow_4_131"/>
</filter>
</defs>
</svg>
