<svg width="35" height="35" viewBox="0 0 35 35" fill="none" xmlns="http://www.w3.org/2000/svg">
<path d="M9.09175 4.92188C8.67204 4.92265 8.25976 5.03268 7.89546 5.24112C7.07515 5.70596 6.56519 6.6083 6.56519 7.58789V27.4121C6.56519 28.3944 7.07515 29.294 7.89546 29.7589C8.26843 29.9732 8.69213 30.0835 9.12228 30.0781C9.55242 30.0726 9.97321 29.9518 10.3407 29.7281L27.2835 19.5863C27.6367 19.3649 27.9277 19.0575 28.1295 18.6928C28.3313 18.3281 28.4371 17.9181 28.4371 17.5014C28.4371 17.0846 28.3313 16.6746 28.1295 16.31C27.9277 15.9453 27.6367 15.6378 27.2835 15.4164L10.3379 5.27188C9.96189 5.04453 9.53117 4.92356 9.09175 4.92188Z" fill="white"/>
</svg>
