<svg width="24" height="20" viewBox="0 0 24 20" fill="none" xmlns="http://www.w3.org/2000/svg">
<g filter="url(#filter0_di_4_119)">
<path d="M4.09432 15.42H4.76655V11.88H4.21655C4.15544 12.12 3.9721 12.3 3.78877 12.42C3.60544 12.6 3.4221 12.72 3.23877 12.72V13.32C3.54433 13.2 3.84988 13.02 4.09432 12.78V15.42Z" fill="#C7C5D0"/>
<path d="M4.27775 18C6.1722 18 7.76109 16.8 8.31109 15.12H15.5833C17.2944 15.12 18.8833 14.46 20.1055 13.26C21.3278 12.06 22 10.44 22 8.7C22 7.98 21.8778 7.32 21.6944 6.66L18.5166 8.52C18.5166 8.58 18.5166 8.64 18.5166 8.76C18.5166 10.38 17.2333 11.7 15.6444 11.7H8.12775C7.39442 10.32 5.98886 9.42 4.33886 9.42C1.95553 9.42 0.0610871 11.34 0.0610871 13.74C-2.40467e-05 16.08 1.95553 18 4.27775 18ZM4.27775 10.74C5.86664 10.74 7.14998 12.06 7.14998 13.62C7.14998 15.24 5.86664 16.5 4.27775 16.5C2.68886 16.5 1.40553 15.18 1.40553 13.62C1.40553 12.06 2.68886 10.74 4.27775 10.74Z" fill="#C7C5D0"/>
<path d="M0.855556 10.14C1.28333 9.66002 1.83333 9.30002 2.44444 9.06002C2.81111 8.94002 3.17778 8.82002 3.54444 8.76002V8.70002C3.54444 7.08002 4.82778 5.76002 6.41667 5.76002H13.4444V8.04002L20.4111 4.02002L13.4444 1.52588e-05V2.28002H6.35556C4.64444 2.28002 3.05556 2.94002 1.89444 4.20002C0.672222 5.40002 0 7.02002 0 8.70002C0 9.42002 0.122222 10.08 0.305556 10.74C0.488889 10.56 0.672222 10.32 0.855556 10.14Z" fill="#C7C5D0"/>
</g>
<defs>
<filter id="filter0_di_4_119" x="0" y="1.52588e-05" width="24" height="20" filterUnits="userSpaceOnUse" color-interpolation-filters="sRGB">
<feFlood flood-opacity="0" result="BackgroundImageFix"/>
<feColorMatrix in="SourceAlpha" type="matrix" values="0 0 0 0 0 0 0 0 0 0 0 0 0 0 0 0 0 0 127 0" result="hardAlpha"/>
<feOffset dx="1" dy="1"/>
<feGaussianBlur stdDeviation="0.5"/>
<feColorMatrix type="matrix" values="0 0 0 0 1 0 0 0 0 1 0 0 0 0 1 0 0 0 1 0"/>
<feBlend mode="normal" in2="BackgroundImageFix" result="effect1_dropShadow_4_119"/>
<feBlend mode="normal" in="SourceGraphic" in2="effect1_dropShadow_4_119" result="shape"/>
<feColorMatrix in="SourceAlpha" type="matrix" values="0 0 0 0 0 0 0 0 0 0 0 0 0 0 0 0 0 0 127 0" result="hardAlpha"/>
<feOffset dx="1" dy="1"/>
<feGaussianBlur stdDeviation="0.5"/>
<feComposite in2="hardAlpha" operator="arithmetic" k2="-1" k3="1"/>
<feColorMatrix type="matrix" values="0 0 0 0 0 0 0 0 0 0 0 0 0 0 0 0 0 0 0.1 0"/>
<feBlend mode="normal" in2="shape" result="effect2_innerShadow_4_119"/>
</filter>
</defs>
</svg>
