<svg width="20" height="20" viewBox="0 0 20 20" fill="none" xmlns="http://www.w3.org/2000/svg">
<path fill-rule="evenodd" clip-rule="evenodd" d="M7 1.223C6.99996 0.996513 7.07681 0.776718 7.21796 0.599594C7.35912 0.42247 7.55622 0.29851 7.777 0.248003C9.24002 -0.0851521 10.7593 -0.0844684 12.222 0.250003C12.443 0.300314 12.6403 0.42419 12.7817 0.601333C12.923 0.778475 13 0.998377 13 1.225V3.072C13 3.24754 13.0462 3.41998 13.134 3.57199C13.2218 3.72401 13.348 3.85024 13.5 3.93801C13.652 4.02577 13.8245 4.07198 14 4.07198C14.1755 4.07198 14.348 4.02577 14.5 3.938L16.101 3.013C16.2974 2.89963 16.5265 2.85638 16.7508 2.89036C16.975 2.92434 17.181 3.03352 17.335 3.2C18.3528 4.30119 19.1116 5.61589 19.556 7.048C19.6231 7.26458 19.6147 7.49755 19.532 7.70868C19.4493 7.91982 19.2973 8.09659 19.101 8.21L17.5 9.134C17.348 9.22177 17.2218 9.34801 17.134 9.50002C17.0463 9.65204 17 9.82447 17 10C17 10.1755 17.0463 10.348 17.134 10.5C17.2218 10.652 17.348 10.7782 17.5 10.866L19.1 11.789C19.2961 11.9024 19.448 12.079 19.5306 12.2899C19.6133 12.5008 19.6219 12.7336 19.555 12.95C19.1136 14.3841 18.3548 15.7003 17.335 16.801C17.1809 16.9673 16.9748 17.0763 16.7506 17.1101C16.5264 17.1439 16.2973 17.1005 16.101 16.987L14.5 16.062C14.348 15.9742 14.1755 15.928 14 15.928C13.8245 15.928 13.652 15.9742 13.5 16.062C13.348 16.1498 13.2218 16.276 13.134 16.428C13.0462 16.58 13 16.7525 13 16.928V18.778C12.9998 19.0045 12.9227 19.2241 12.7813 19.4011C12.64 19.578 12.4428 19.7017 12.222 19.752C10.759 20.0851 9.23972 20.0844 7.777 19.75C7.55622 19.6995 7.35912 19.5755 7.21796 19.3984C7.07681 19.2213 6.99996 19.0015 7 18.775V16.928C7 16.7525 6.95379 16.58 6.86602 16.428C6.77825 16.276 6.65201 16.1498 6.49999 16.062C6.34797 15.9742 6.17553 15.928 6 15.928C5.82446 15.928 5.65202 15.9742 5.5 16.062L3.899 16.987C3.70259 17.1004 3.47348 17.1436 3.24925 17.1096C3.02502 17.0757 2.81901 16.9665 2.665 16.8C2.15765 16.2512 1.71322 15.6475 1.34 15C0.965943 14.3529 0.66541 13.6659 0.444004 12.952C0.376871 12.7354 0.385336 12.5025 0.46801 12.2913C0.550684 12.0802 0.702658 11.9034 0.899004 11.79L2.499 10.866C2.65101 10.7782 2.77724 10.652 2.865 10.5C2.95276 10.348 2.99896 10.1755 2.99896 10C2.99896 9.82447 2.95276 9.65204 2.865 9.50002C2.77724 9.34801 2.65101 9.22177 2.499 9.134L0.901004 8.211C0.704689 8.09779 0.552651 7.92125 0.469803 7.71031C0.386955 7.49938 0.378211 7.26656 0.445004 7.05C0.886541 5.61626 1.64531 4.30037 2.665 3.2C2.81894 3.03376 3.02478 2.92473 3.24878 2.89075C3.47279 2.85678 3.70169 2.89988 3.898 3.013L5.5 3.938C5.65202 4.02577 5.82446 4.07198 6 4.07198C6.17553 4.07198 6.34797 4.02577 6.49999 3.93801C6.65201 3.85024 6.77825 3.72401 6.86602 3.57199C6.95379 3.41998 7 3.24754 7 3.072V1.223ZM10 13C10.7957 13 11.5587 12.6839 12.1213 12.1213C12.6839 11.5587 13 10.7957 13 10C13 9.20435 12.6839 8.44129 12.1213 7.87868C11.5587 7.31607 10.7957 7 10 7C9.20435 7 8.44129 7.31607 7.87868 7.87868C7.31607 8.44129 7 9.20435 7 10C7 10.7957 7.31607 11.5587 7.87868 12.1213C8.44129 12.6839 9.20435 13 10 13Z" fill="#C7C5D0"/>
</svg>
