<svg width="20" height="20" viewBox="0 0 20 20" fill="none" xmlns="http://www.w3.org/2000/svg">
<path d="M14.3615 11.9385C15.9704 11.9385 17.2692 13.2373 17.2692 14.8462C17.2692 16.4551 15.9704 17.7539 14.3615 17.7539C12.7526 17.7539 11.4538 16.4551 11.4538 14.8462C11.4538 14.6136 11.4829 14.4003 11.541 14.1774L7.29579 11.9482C6.76271 12.5394 6.00671 12.9077 5.15379 12.9077C3.54486 12.9077 2.24609 11.609 2.24609 10C2.24609 8.39111 3.54486 7.09234 5.15379 7.09234C6.00671 7.09234 6.76271 7.47034 7.29579 8.05188L11.541 5.82265C11.4829 5.59972 11.4538 5.38649 11.4538 5.15388C11.4538 3.54495 12.7526 2.24619 14.3615 2.24619C15.9704 2.24619 17.2692 3.54495 17.2692 5.15388C17.2692 6.7628 15.9704 8.06157 14.3615 8.06157C13.5086 8.06157 12.7526 7.68357 12.2195 7.10203L7.97425 9.33126C8.09164 9.76938 8.09164 10.2307 7.97425 10.6688L12.2195 12.898C12.7526 12.3068 13.5086 11.9385 14.3615 11.9385Z" fill="#C7C5D0"/>
</svg>
