<svg width="24" height="20" viewBox="0 0 24 20" fill="none" xmlns="http://www.w3.org/2000/svg">
<g filter="url(#filter0_di_4_114)">
<path d="M10.1588 14.5286C9.77059 14.0143 9.51176 13.4357 9.31765 12.7929L8.67059 10.9286L8.54118 11.3786C8.34706 12.0857 8.02353 12.15 7.89412 12.2143H0V15.4286H7.89412C8.47647 15.4286 9.38235 15.2357 10.1588 14.5286Z" fill="#C7C5D0"/>
<path d="M8.47647 6.62143L9.51176 9.57857L10.5471 12.4071C11.3235 14.7857 13.2 15.4286 14.2353 15.4286H17.8588V18L22 13.8857L17.8588 9.77143V12.2143H14.3C14.1706 12.2143 13.8471 12.0857 13.6529 11.3786L12.6176 8.42143L11.5824 5.59285C10.8059 3.21428 8.92941 2.57143 7.89412 2.57143H0V5.78571H7.82941C7.95882 5.85 8.28235 5.97857 8.47647 6.62143Z" fill="#C7C5D0"/>
<path d="M13.4588 7.07143L13.6529 6.55714C13.8471 5.85 14.1706 5.78571 14.3 5.72143H17.8588V8.22857L22 4.11429L17.8588 0V2.50714H14.2353C13.6529 2.50714 12.6824 2.76429 11.9059 3.40714C12.2941 3.92143 12.6176 4.56429 12.8118 5.20714L13.4588 7.07143Z" fill="#C7C5D0"/>
</g>
<defs>
<filter id="filter0_di_4_114" x="0" y="0" width="24" height="20" filterUnits="userSpaceOnUse" color-interpolation-filters="sRGB">
<feFlood flood-opacity="0" result="BackgroundImageFix"/>
<feColorMatrix in="SourceAlpha" type="matrix" values="0 0 0 0 0 0 0 0 0 0 0 0 0 0 0 0 0 0 127 0" result="hardAlpha"/>
<feOffset dx="1" dy="1"/>
<feGaussianBlur stdDeviation="0.5"/>
<feColorMatrix type="matrix" values="0 0 0 0 1 0 0 0 0 1 0 0 0 0 1 0 0 0 1 0"/>
<feBlend mode="normal" in2="BackgroundImageFix" result="effect1_dropShadow_4_114"/>
<feBlend mode="normal" in="SourceGraphic" in2="effect1_dropShadow_4_114" result="shape"/>
<feColorMatrix in="SourceAlpha" type="matrix" values="0 0 0 0 0 0 0 0 0 0 0 0 0 0 0 0 0 0 127 0" result="hardAlpha"/>
<feOffset dx="1" dy="1"/>
<feGaussianBlur stdDeviation="0.5"/>
<feComposite in2="hardAlpha" operator="arithmetic" k2="-1" k3="1"/>
<feColorMatrix type="matrix" values="0 0 0 0 0 0 0 0 0 0 0 0 0 0 0 0 0 0 0.1 0"/>
<feBlend mode="normal" in2="shape" result="effect2_innerShadow_4_114"/>
</filter>
</defs>
</svg>
